<svg width="63" height="64" viewBox="0 0 63 64" fill="none" xmlns="http://www.w3.org/2000/svg">
<g clip-path="url(#clip0_118_74)">
<path d="M4.63725 35.6142C4.63725 35.5431 4.63725 35.4542 4.63725 35.3476C4.67279 35.241 4.69056 35.1877 4.69056 35.1877C5.22357 34.1572 5.77436 33.1623 6.34291 32.2028C6.947 31.2434 7.55108 30.3017 8.15517 29.3778C8.79479 28.4184 9.39888 27.459 9.96743 26.4996C10.5715 25.5046 11.1223 24.5096 11.6198 23.5147C11.4776 23.1948 11.1223 22.9106 10.5537 22.6618C9.9852 22.4131 9.29227 22.1466 8.47498 21.8623C7.69322 21.578 6.85816 21.2582 5.9698 20.9029C5.08143 20.512 4.26414 20.0678 3.51792 19.5703C2.77169 19.0373 2.14984 18.4332 1.65235 17.7581C1.15487 17.0474 0.90613 16.2301 0.90613 15.3062C0.90613 14.3468 1.22594 13.5117 1.86556 12.801C2.50518 12.0548 3.28694 11.4507 4.21084 10.9887C5.13474 10.4913 6.11194 10.1181 7.14244 9.8694C8.17294 9.62066 9.0613 9.49629 9.80752 9.49629C11.371 9.49629 12.7391 9.7628 13.9118 10.2958C15.1199 10.8288 16.3636 11.5218 17.6429 12.3746C18.0693 12.0548 18.4246 11.6994 18.7089 11.3086C19.0287 10.9177 19.313 10.4913 19.5617 10.0293C19.6684 9.78057 19.8993 9.33639 20.2547 8.69676C20.6455 8.02161 21.0187 7.31092 21.374 6.56469C21.7649 5.81847 22.138 5.12555 22.4933 4.48592C22.8842 3.81077 23.133 3.33105 23.2396 3.04678C23.5238 2.83357 23.7548 2.7092 23.9325 2.67366C24.1102 2.6026 24.3589 2.56706 24.6787 2.56706C24.7143 2.56706 24.7853 2.56706 24.8919 2.56706C25.0341 2.56706 25.1229 2.56706 25.1584 2.56706C25.5138 4.05951 25.7803 5.58749 25.958 7.15101C26.1356 8.71453 26.26 10.278 26.3311 11.8416C26.4377 13.4051 26.5265 14.9686 26.5976 16.5321C26.6686 18.0956 26.793 19.6592 26.9707 21.2227C27.0773 21.2227 27.2727 21.2404 27.557 21.276C27.8413 21.276 28.0545 21.276 28.1966 21.276C28.6941 21.276 29.1916 21.2227 29.6891 21.1161C30.1866 21.0095 30.684 20.9029 31.1815 20.7963C31.679 20.6541 32.1765 20.5298 32.674 20.4232C33.207 20.3165 33.74 20.2632 34.273 20.2632H34.4329C34.4685 20.2988 34.5395 20.3699 34.6461 20.4765C34.7527 20.5831 34.8416 20.6541 34.9127 20.6897C34.6994 21.0805 34.3441 21.4004 33.8466 21.6491C33.3847 21.8623 32.8517 22.04 32.2476 22.1821C31.679 22.3242 31.0749 22.4664 30.4353 22.6085C29.7957 22.7151 29.2271 22.8573 28.7297 23.0349C28.2322 23.1771 27.8058 23.3547 27.4504 23.568C27.1306 23.7812 26.9707 24.0832 26.9707 24.4741C26.9707 25.1848 27.0062 25.8955 27.0773 26.6062C27.1839 27.3168 27.2905 28.0453 27.3971 28.7915C27.5392 29.5022 27.6636 30.2307 27.7702 30.9769C27.8768 31.6876 27.9301 32.416 27.9301 33.1623C27.9301 33.3399 27.9124 33.5887 27.8768 33.9085C27.8768 34.2283 27.8413 34.5481 27.7702 34.8679C27.7347 35.1877 27.6281 35.472 27.4504 35.7208C27.3083 35.9695 27.0773 36.0939 26.7575 36.0939C26.4021 36.0939 26.0823 35.8274 25.7981 35.2943C25.5138 34.7613 25.2828 34.0862 25.1051 33.2689C24.9275 32.4516 24.7676 31.5632 24.6254 30.6038C24.5188 29.6088 24.4122 28.6672 24.3056 27.7788C24.2345 26.8549 24.1457 26.0554 24.0391 25.3802C23.9325 24.6695 23.8259 24.2076 23.7193 23.9944C23.435 23.9588 22.902 23.9233 22.1202 23.8878C21.374 23.8522 20.5745 23.8167 19.7217 23.7812C18.9044 23.7101 18.1226 23.6568 17.3764 23.6213C16.6301 23.5502 16.1149 23.5147 15.8306 23.5147H15.2976C14.5869 23.5147 13.9118 23.8522 13.2721 24.5274C12.6681 25.167 12.0995 26.0021 11.5665 27.0326C11.069 28.0275 10.5715 29.1113 10.074 30.284C9.57655 31.4211 9.09683 32.5049 8.63489 33.5354C8.17294 34.5304 7.69322 35.3654 7.19574 36.0406C6.69825 36.7157 6.16524 37.0533 5.59669 37.0533C5.20581 37.0533 4.9393 36.9112 4.79716 36.6269C4.69056 36.3071 4.63725 35.9695 4.63725 35.6142ZM15.3509 21.2227C15.6352 21.4004 15.9728 21.5425 16.3636 21.6491C16.7901 21.7202 17.2165 21.7557 17.6429 21.7557C18.0693 21.7557 18.4602 21.7557 18.8155 21.7557C19.2064 21.7557 19.544 21.7557 19.8283 21.7557C19.9704 21.7557 20.1481 21.7557 20.3613 21.7557C20.5745 21.7202 20.7877 21.7024 21.0009 21.7024C21.2141 21.7024 21.3918 21.7024 21.5339 21.7024C21.7116 21.6669 21.8182 21.6491 21.8537 21.6491L22.3334 21.2227C22.4045 21.1516 22.2801 20.8318 21.9603 20.2632C21.6405 19.6947 21.2319 19.1084 20.7344 18.5043C20.2724 17.8647 19.8105 17.2961 19.3485 16.7986C18.8866 16.2656 18.5668 15.9991 18.3891 15.9991C18.3536 15.9991 18.318 16.0169 18.2825 16.0524C18.247 16.0879 18.1937 16.1057 18.1226 16.1057C17.5896 16.8875 17.0921 17.7048 16.6301 18.5576C16.1682 19.4104 15.7418 20.2988 15.3509 21.2227ZM3.25141 15.2529C3.25141 16.1768 3.57122 16.9941 4.21084 17.7048C4.85046 18.3799 5.63222 18.9485 6.55612 19.4104C7.48001 19.8724 8.45721 20.2099 9.48771 20.4232C10.5182 20.6364 11.4243 20.743 12.2061 20.743C12.7036 20.743 13.2188 20.4942 13.7519 19.9967C14.2849 19.4637 14.7646 18.8596 15.191 18.1845C15.653 17.5093 16.0261 16.8164 16.3103 16.1057C16.6301 15.395 16.7901 14.8442 16.7901 14.4534C16.7901 14.0269 16.5058 13.6361 15.9372 13.2807C15.3687 12.8898 14.6935 12.5523 13.9118 12.268C13.1655 11.9837 12.4193 11.7705 11.6731 11.6284C10.9269 11.4507 10.3761 11.3619 10.0207 11.3619C9.48771 11.3619 8.83033 11.4507 8.04857 11.6284C7.30234 11.7705 6.55612 12.0015 5.80989 12.3213C5.0992 12.6411 4.49512 13.0497 3.99763 13.5472C3.50015 14.0092 3.25141 14.5777 3.25141 15.2529ZM19.9882 13.4939C19.9882 13.9559 20.1658 14.5244 20.5212 15.1996C20.8765 15.8747 21.3029 16.5321 21.8004 17.1717C22.2979 17.8114 22.8132 18.3622 23.3462 18.8241C23.9147 19.286 24.4122 19.517 24.8386 19.517C24.8386 19.3393 24.8209 19.0728 24.7853 18.7175C24.7853 18.3622 24.7676 17.9713 24.732 17.5449C24.732 17.1184 24.7143 16.7276 24.6787 16.3722C24.6787 16.0169 24.6787 15.7504 24.6787 15.5727C24.6076 15.0752 24.5188 14.4178 24.4122 13.6005C24.3411 12.7832 24.2523 11.9837 24.1457 11.2019C24.0746 10.4202 23.9858 9.72726 23.8792 9.12318C23.8081 8.51909 23.7548 8.19928 23.7193 8.16375L23.2396 7.25762C23.204 7.29315 23.1152 7.36422 22.9731 7.47082C22.8665 7.57743 22.7954 7.6485 22.7599 7.68403C22.6532 7.89724 22.4756 8.25258 22.2268 8.75007C21.9781 9.21201 21.6938 9.7095 21.374 10.2425C21.0897 10.7755 20.8232 11.2908 20.5745 11.7883C20.3257 12.2857 20.1481 12.6233 20.0415 12.801C20.0415 12.8721 20.0237 12.9964 19.9882 13.1741C19.9882 13.3518 19.9882 13.4584 19.9882 13.4939ZM36.7249 27.9387C36.7249 27.8676 36.7249 27.761 36.7249 27.6189C36.7249 27.4768 36.7249 27.3168 36.7249 27.1392C36.7604 26.9615 36.7782 26.8016 36.7782 26.6595C36.7782 26.4818 36.7782 26.3752 36.7782 26.3396C36.8137 26.233 36.9381 26.1087 37.1513 25.9665C37.4001 25.8244 37.5777 25.7711 37.6843 25.8066C37.8976 25.8777 38.093 26.1264 38.2707 26.5529C38.4483 26.9793 38.626 27.4945 38.8037 28.0986C38.9814 28.7027 39.1768 29.3778 39.39 30.1241C39.6387 30.8348 39.9408 31.5099 40.2961 32.1495C40.687 32.7536 41.149 33.3044 41.682 33.8019C42.2505 34.2638 42.9257 34.5659 43.7074 34.708C43.9562 34.7436 44.1516 34.7436 44.2938 34.708C44.4359 34.637 44.5247 34.5481 44.5603 34.4415C44.6313 34.2994 44.6669 34.1572 44.6669 34.0151C44.6669 33.8374 44.6669 33.6953 44.6669 33.5887C44.6313 32.9491 44.3826 32.2917 43.9207 31.6165C43.4587 30.9058 42.9079 30.1596 42.2683 29.3778C41.6287 28.5606 40.9891 27.7077 40.3494 26.8194C39.7098 25.8955 39.1768 24.936 38.7504 23.9411C38.324 22.9106 38.0575 21.8268 37.9509 20.6897C37.8442 19.517 38.0575 18.2733 38.5905 16.9585C38.5905 16.6387 38.7504 16.2123 39.0702 15.6793C39.4255 15.1463 39.8342 14.6488 40.2961 14.1868C40.7936 13.6894 41.3089 13.2629 41.8419 12.9076C42.3749 12.5523 42.8368 12.3746 43.2277 12.3746C43.7963 12.3746 44.3293 12.4812 44.8268 12.6944C45.3598 12.9076 45.7684 13.2629 46.0527 13.7604C46.4081 14.2224 46.8167 14.8442 47.2787 15.626C47.7761 16.3722 48.2026 17.1184 48.5579 17.8647C48.9488 18.6109 49.1975 19.286 49.3041 19.8901C49.4107 20.4942 49.2508 20.8496 48.8244 20.9562C48.3269 20.9562 47.9005 20.814 47.5452 20.5298C47.2254 20.2455 46.9589 19.8901 46.7456 19.4637C46.5324 19.0373 46.337 18.5754 46.1593 18.0779C45.9817 17.5449 45.7862 17.0651 45.573 16.6387C45.3598 16.2123 45.1111 15.857 44.8268 15.5727C44.5425 15.2529 44.1694 15.093 43.7074 15.093C43.0678 15.093 42.4993 15.2884 42.0018 15.6793C41.5398 16.0702 41.149 16.5499 40.8291 17.1184C40.5449 17.687 40.3317 18.3088 40.1895 18.984C40.0829 19.6236 40.0296 20.1922 40.0296 20.6897C40.0296 21.578 40.1895 22.4131 40.5093 23.1948C40.8647 23.9411 41.2911 24.6695 41.7886 25.3802C42.3216 26.0554 42.8902 26.7305 43.4942 27.4057C44.1339 28.0808 44.7024 28.7738 45.1999 29.4845C45.7329 30.1596 46.1771 30.8703 46.5324 31.6165C46.8878 32.3627 47.0655 33.1623 47.0655 34.0151C47.0655 34.3704 46.9766 34.7258 46.7989 35.0811C46.6568 35.4009 46.4436 35.7208 46.1593 36.0406C45.9106 36.3248 45.6085 36.5558 45.2532 36.7335C44.8978 36.9112 44.5425 37 44.1872 37C43.1922 37 42.2505 36.698 41.3622 36.0939C40.4738 35.4898 39.6743 34.7258 38.9636 33.8019C38.2884 32.878 37.7376 31.9008 37.3112 30.8703C36.9204 29.8043 36.7249 28.8271 36.7249 27.9387ZM34.806 44.6222C34.806 43.9825 34.8238 43.414 34.8594 42.9165C34.8949 42.419 35.0548 41.8505 35.3391 41.2108C35.4457 43.1297 35.6944 44.9064 36.0853 46.541C36.4406 48.2111 36.9737 49.7569 37.6843 51.1783C38.395 52.5996 39.2834 53.9322 40.3494 55.1759C41.3799 56.4551 42.6592 57.6811 44.1872 58.8537C44.9334 59.4223 45.7862 59.8842 46.7456 60.2396C47.6695 60.5949 48.5934 60.7726 49.5173 60.7726C50.6189 60.7726 51.5606 60.4172 52.3423 59.7066C53.1596 59.0314 53.8348 58.1253 54.3678 56.9882C54.9363 55.8866 55.3805 54.6607 55.7003 53.3103C56.0557 51.96 56.3222 50.5919 56.4999 49.2061C56.7131 47.8558 56.8552 46.5943 56.9263 45.4217C57.0329 44.249 57.1217 43.3074 57.1928 42.5967C57.1928 42.419 57.2461 41.9393 57.3527 41.1575C57.4593 40.3758 57.5659 39.5407 57.6725 38.6524C57.7791 37.764 57.8857 36.9467 57.9923 36.2005C58.0989 35.4187 58.1522 34.9212 58.1522 34.708C58.1522 34.6014 58.1522 34.3171 58.1522 33.8552C58.1522 33.3577 58.1522 32.8247 58.1522 32.2561C58.1878 31.6521 58.2055 31.0657 58.2055 30.4972C58.2055 29.9286 58.2055 29.4845 58.2055 29.1646C58.2055 28.9514 58.2055 28.6494 58.2055 28.2585C58.2055 27.8676 58.1878 27.4768 58.1522 27.0859C58.1522 26.6595 58.1522 26.2863 58.1522 25.9665C58.1522 25.6467 58.1522 25.4513 58.1522 25.3802L57.6725 24.4741C57.2461 24.6873 56.7841 25.0071 56.2867 25.4335C55.7892 25.8244 55.2917 26.233 54.7942 26.6595C54.2967 27.0859 53.7992 27.459 53.3018 27.7788C52.8043 28.0986 52.3423 28.2585 51.9159 28.2585C51.6316 28.2585 51.3474 28.223 51.0631 28.1519C50.8143 28.0808 50.69 27.8499 50.69 27.459C50.69 26.926 50.9743 26.3752 51.5428 25.8066C52.1114 25.2381 52.7865 24.7228 53.5683 24.2609C54.35 23.7634 55.1496 23.3547 55.9668 23.0349C56.7841 22.7151 57.4238 22.5552 57.8857 22.5552C57.9568 22.5552 58.0634 22.5552 58.2055 22.5552C58.3832 22.5552 58.5609 22.573 58.7385 22.6085C58.9162 22.6085 59.0761 22.6085 59.2183 22.6085C59.3604 22.6085 59.467 22.6085 59.5381 22.6085C59.7868 22.7862 59.9645 22.9994 60.0711 23.2481C60.2132 23.4969 60.3376 23.7456 60.4442 23.9944C60.4442 24.172 60.4442 24.4919 60.4442 24.9538C60.4797 25.4158 60.4975 25.9132 60.4975 26.4463C60.533 26.9437 60.5508 27.4412 60.5508 27.9387C60.5508 28.4006 60.5508 28.7205 60.5508 28.8981C60.5508 29.1824 60.5508 29.5911 60.5508 30.1241C60.5508 30.6216 60.533 31.1368 60.4975 31.6698C60.4975 32.2028 60.4797 32.6648 60.4442 33.0557C60.4442 33.4465 60.4442 33.6775 60.4442 33.7486C60.4087 34.0684 60.3376 34.6725 60.231 35.5609C60.1244 36.4137 59.9822 37.4264 59.8046 38.5991C59.6269 39.7717 59.4315 41.0332 59.2183 42.3835C59.0406 43.7693 58.8451 45.0841 58.6319 46.3278C58.4543 47.6071 58.2766 48.7797 58.0989 49.8457C57.9212 50.9118 57.7791 51.7468 57.6725 52.3509C57.4948 53.3814 57.2639 54.4652 56.9796 55.6023C56.7308 56.775 56.34 57.841 55.8069 58.8004C55.3095 59.7954 54.6343 60.6127 53.7815 61.2523C52.9642 61.8919 51.9159 62.2117 50.6367 62.2117C48.2914 62.2117 46.1593 61.7143 44.2405 60.7193C42.2861 59.7599 40.6159 58.4628 39.2301 56.8283C37.8442 55.1937 36.7604 53.3103 35.9787 51.1783C35.1969 49.0462 34.806 46.8608 34.806 44.6222ZM57.406 15.1463C57.406 14.7554 57.4771 14.4534 57.6192 14.2401C57.7613 14.0269 58.0456 13.9203 58.472 13.9203C58.7918 13.9203 59.005 14.0447 59.1117 14.2934C59.2538 14.5422 59.3249 14.8265 59.3249 15.1463C59.3249 15.5016 59.2538 15.7859 59.1117 15.9991C59.005 16.2123 58.7918 16.3189 58.472 16.3189C58.0456 16.3189 57.7613 16.2123 57.6192 15.9991C57.4771 15.7859 57.406 15.5016 57.406 15.1463Z" fill="#F1F5F9"/>
</g>
<defs>
<clipPath id="clip0_118_74">
<rect width="63" height="64" fill="white"/>
</clipPath>
</defs>
</svg>
