<svg width="63" height="28" viewBox="0 0 63 28" fill="none" xmlns="http://www.w3.org/2000/svg">
<path d="M31.3472 23.2621C21.5689 23.2621 8.77594 17.4759 3.68143 8.68717C3.39423 8.19182 2.08231 6.25692 2.39341 5.56966C2.66237 4.97565 3.8377 5.23598 3.89505 5.08643C4.08731 4.58492 4.7504 4.54059 3.87765 3.78065C3.34506 3.31689 1.73961 3.52068 1.23262 3.81013C-2.4525 5.9142 3.12974 13.5584 4.90642 15.5312C11.6658 23.0367 23.5083 28.0928 33.5133 27.6773C38.679 27.4628 44.2061 25.217 47.5102 21.0755C50.9752 16.7323 50.273 12.538 49.4782 7.46014C51.6775 7.86395 54.7808 12.056 56.5307 13.558C57.7055 14.5665 62.7824 18.1226 62.2947 13.5031C62.0453 11.1401 56.791 8.64396 55.1232 7.38695C52.4451 5.36853 49.5803 3.49685 46.9762 1.44547C45.8895 0.589436 46.0286 -0.308865 44.2644 0.103222C42.669 0.475936 42.01 2.29954 41.263 3.53554C39.6075 6.27462 37.576 8.93998 36.1959 11.8348C34.6922 14.9889 36.1025 17.1351 38.9333 14.4222C40.0038 13.3964 43.0093 7.70338 44.2026 7.82005C44.9667 7.89469 45.0113 12.3833 45.0177 12.6149C45.0826 14.9705 44.7042 16.6806 43.2093 18.5083C40.0959 22.3151 35.8597 22.808 31.3472 23.2621C32.5194 23.1441 30.5689 23.2621 31.3472 23.2621Z" fill="#FBFBFB"/>
</svg>
