<svg width="1669" height="1670" viewBox="0 0 1669 1670" fill="none" xmlns="http://www.w3.org/2000/svg">
<path d="M834.092 69C628.829 69 431.973 150.54 286.83 295.683C141.687 440.826 60.1465 637.682 60.1465 842.945C60.1465 1048.21 141.687 1245.06 286.83 1390.21C431.973 1535.35 628.829 1616.89 834.092 1616.89C1039.35 1616.89 1236.21 1535.35 1381.35 1390.21C1526.5 1245.06 1608.04 1048.21 1608.04 842.945C1608.04 637.682 1526.5 440.826 1381.35 295.683C1236.21 150.54 1039.35 69 834.092 69ZM834.092 212.104C916.935 212.104 998.967 228.421 1075.5 260.124C1152.04 291.826 1221.58 338.294 1280.16 396.873C1338.74 455.452 1385.21 524.995 1416.91 601.533C1448.62 678.07 1464.93 760.102 1464.93 842.945C1464.93 925.79 1448.61 1007.82 1416.91 1084.36C1385.21 1160.9 1338.74 1230.44 1280.16 1289.02C1221.58 1347.6 1152.03 1394.07 1075.49 1425.77C998.952 1457.47 916.918 1473.79 834.073 1473.79C751.23 1473.78 669.198 1457.46 592.662 1425.76C516.126 1394.05 446.584 1347.58 388.006 1289C329.429 1230.42 282.964 1160.88 251.263 1084.34C219.563 1007.8 203.248 925.77 203.25 842.926C203.26 675.623 269.728 515.176 388.033 396.878C506.337 278.581 666.788 212.104 834.092 212.104Z" fill="#D4D4D8"/>
<path d="M293.758 476.441C398.692 476.441 483.758 391.375 483.758 286.441C483.758 181.506 398.692 96.4399 293.758 96.4399C188.823 96.4399 103.757 181.506 103.757 286.441C103.757 391.375 188.823 476.441 293.758 476.441Z" fill="#18181B"/>
<path d="M834.092 1228.46C1047.01 1228.46 1219.61 1055.86 1219.61 842.945C1219.61 630.031 1047.01 457.43 834.092 457.43C621.177 457.43 448.576 630.031 448.576 842.945C448.576 1055.86 621.177 1228.46 834.092 1228.46Z" fill="#D4D4D8"/>
</svg>
