<svg width="800" height="800" viewBox="0 0 800 800" fill="none" xmlns="http://www.w3.org/2000/svg">
<g clip-path="url(#clip0_132_8)">
<path d="M0 696.848C0 753.823 46.1829 800 103.152 800H696.848C753.823 800 800 753.817 800 696.848V103.152C800 46.1766 753.817 0 696.848 0H103.152C46.1766 0 0 46.1829 0 103.152V696.848Z" fill="#D4D4D8"/>
<path d="M331.742 353.869V240.577H431.467C440.964 240.577 450.122 241.368 458.942 242.951C467.761 244.534 475.562 247.361 482.346 251.431C489.13 255.502 494.557 261.155 498.628 268.391C502.698 275.627 504.733 284.899 504.733 296.205C504.733 316.557 498.628 331.256 486.417 340.301C474.206 349.346 458.603 353.869 439.607 353.869H331.742ZM225.234 157.812V642.188H459.959C481.668 642.188 502.811 639.474 523.389 634.047C543.967 628.62 562.284 620.253 578.339 608.946C594.395 597.639 607.171 583.054 616.669 565.19C626.166 547.325 630.915 526.182 630.915 501.759C630.915 471.458 623.566 445.566 608.867 424.083C594.169 402.6 571.895 387.563 542.045 378.97C563.754 368.568 580.148 355.226 591.229 338.944C602.31 322.663 607.85 302.311 607.85 277.889C607.85 255.275 604.119 236.28 596.656 220.903C589.194 205.526 578.679 193.202 565.111 183.931C551.543 174.659 535.261 167.988 516.266 163.918C497.271 159.848 476.241 157.812 453.175 157.812H225.234ZM331.742 559.423V426.457H447.748C470.814 426.457 489.356 431.772 503.377 442.4C517.397 453.028 524.407 470.779 524.407 495.654C524.407 508.317 522.259 518.719 517.962 526.86C513.666 535.001 507.899 541.446 500.663 546.194C493.427 550.943 485.06 554.335 475.562 556.37C466.065 558.406 456.115 559.423 445.713 559.423H331.742Z" fill="#18181B"/>
</g>
<defs>
<clipPath id="clip0_132_8">
<rect width="800" height="800" fill="white"/>
</clipPath>
</defs>
</svg>
