<svg width="800" height="800" viewBox="0 0 800 800" fill="none" xmlns="http://www.w3.org/2000/svg">
<path d="M399.997 288.889H288.886M399.997 288.889V66.6665H288.886C227.521 66.6665 177.775 116.413 177.775 177.778C177.775 239.143 227.521 288.889 288.886 288.889M399.997 288.889V511.11H288.886M399.997 288.889H511.11M288.886 288.889C227.521 288.889 177.775 338.636 177.775 400C177.775 461.363 227.521 511.11 288.886 511.11M288.886 511.11C227.521 511.11 177.775 560.856 177.775 622.223C177.775 683.586 227.521 733.333 288.886 733.333C350.25 733.333 399.997 683.586 399.997 622.223M511.11 288.889C449.743 288.889 399.997 338.636 399.997 400C399.997 461.363 449.743 511.11 511.11 511.11C572.473 511.11 622.22 461.363 622.22 400C622.22 338.636 572.473 288.889 511.11 288.889ZM511.11 288.889C572.473 288.889 622.22 239.143 622.22 177.778C622.22 116.413 572.473 66.6665 511.11 66.6665" stroke="#D4D4D8" stroke-width="50" stroke-linecap="round" stroke-linejoin="round"/>
</svg>
