<svg width="800" height="800" viewBox="0 0 800 800" fill="none" xmlns="http://www.w3.org/2000/svg">
<path d="M404.275 467.5C392.25 473.025 379.075 480.225 352.7 494.7C342.7 500.325 332.25 505.95 322.525 511.25C321.85 510.575 321.15 509.725 320.475 509.025C268.3 453.275 171.8 413.9 175.9 339.025C177.425 311.75 186.8 240.15 361.225 153.2C504.775 82.4498 619 102.05 638.725 145.525C667.075 207.5 577.5 322.825 429.25 339.55C412.842 342.878 395.896 342.476 379.665 338.374C363.433 334.271 348.331 326.574 335.475 315.85C327.625 307.325 326.45 306.825 323.55 308.525C318.775 311.025 321.85 318.75 323.55 323.175C329.205 333.413 336.855 342.414 346.049 349.646C355.242 356.877 365.792 362.191 377.075 365.275C435.415 377.885 496.242 371.86 550.975 348.05C640.825 313.275 710.975 216.6 690.425 135.55C669.8 53.3748 533.4 26.2748 404.35 72.1248C323.532 99.3597 248.863 142.233 184.6 198.3C113.5 264.8 102.25 322.6 106.85 346.8C123.4 432.725 241.85 488.65 289.35 530.075C286.85 531.45 284.75 532.575 282.875 533.65C259.175 545.425 168.825 592.65 146.3 642.6C120.725 699.2 150.4 739.775 170 745.225C199.537 752.3 230.547 749.974 258.698 738.572C286.849 727.17 310.737 707.261 327.025 681.625C340.857 660.367 349.35 636.083 351.784 610.838C354.217 585.593 350.517 560.133 341 536.625C346.615 532.146 352.604 528.156 358.9 524.7C371 517.55 382.525 510.5 392.75 505.05C427.76 488.651 465.965 480.208 504.625 480.325C585.775 489.875 601.8 540.5 598.725 561.825C597.286 569.391 594.244 576.561 589.802 582.853C585.361 589.144 579.623 594.411 572.975 598.3C567.35 601.875 565.475 603.075 565.975 605.625C566.65 609.375 569.375 609.2 574.15 608.525C586.342 604.671 597.084 597.22 604.963 587.15C612.843 577.079 617.492 564.861 618.3 552.1C620.8 502.1 573.125 447.25 488.725 447.75C463.453 447.793 438.434 452.779 415.075 462.425C411.325 463.975 407.683 465.642 404.15 467.425L404.275 467.5ZM283.65 663.475C256.7 692.8 219.2 703.875 203 694.5C185.5 684.5 192.425 641.125 225.5 610.1C245.089 592.45 266.262 576.642 288.75 562.875C292.675 560.375 298.475 557.075 305.45 552.875C306.65 552.2 307.325 551.85 307.325 551.85L311.425 549.35C317.324 569.127 317.861 590.117 312.98 610.171C308.1 630.224 297.978 648.62 283.65 663.475Z" fill="#D4D4D8"/>
</svg>
