<svg width="800" height="800" viewBox="0 0 800 800" fill="none" xmlns="http://www.w3.org/2000/svg">
<g clip-path="url(#clip0_132_36)">
<path d="M103.755 735.609L79.0256 76.6726C78.2089 54.9106 94.8953 36.4674 116.63 35.109L677.102 0.0795249C699.226 -1.3032 718.281 15.5106 719.664 37.6343C719.716 38.4678 719.742 39.3028 719.742 40.1379V758.166C719.742 780.333 701.772 798.302 679.606 798.302C679.005 798.302 678.405 798.289 677.805 798.262L142.063 774.2C121.198 773.263 104.539 756.481 103.755 735.609Z" fill="#D4D4D8"/>
<mask id="mask0_132_36" style="mask-type:luminance" maskUnits="userSpaceOnUse" x="78" y="0" width="642" height="799">
<path d="M103.755 735.609L79.0256 76.6726C78.2089 54.9106 94.8953 36.4674 116.63 35.109L677.102 0.0795249C699.226 -1.3032 718.281 15.5106 719.664 37.6343C719.716 38.4678 719.742 39.3028 719.742 40.1379V758.166C719.742 780.333 701.772 798.302 679.606 798.302C679.005 798.302 678.405 798.289 677.805 798.262L142.063 774.2C121.198 773.263 104.539 756.481 103.755 735.609Z" fill="white"/>
</mask>
<g mask="url(#mask0_132_36)">
<path d="M552.139 98.1241L555.967 6.04761L632.937 0L636.253 94.9553C636.368 98.2599 633.783 101.032 630.478 101.148C629.063 101.197 627.676 100.744 626.564 99.8674L596.882 76.485L561.739 103.143C559.105 105.141 555.349 104.626 553.351 101.991C552.51 100.882 552.081 99.5148 552.139 98.1241ZM453.702 300.891C453.702 316.507 558.886 309.022 573.006 298.054C573.006 191.716 515.947 135.837 411.464 135.837C306.981 135.837 248.441 192.585 248.441 277.708C248.441 425.962 448.515 428.8 448.515 509.666C448.515 532.365 437.4 545.843 412.946 545.843C381.082 545.843 368.485 529.57 369.967 474.24C369.967 462.237 248.441 458.495 244.736 474.24C235.301 608.323 318.837 646.998 414.428 646.998C507.055 646.998 579.675 597.625 579.675 508.247C579.675 349.352 376.636 353.608 376.636 274.87C376.636 242.949 400.349 238.693 414.428 238.693C429.249 238.693 455.925 241.306 453.702 300.891Z" fill="#18181B"/>
</g>
</g>
<defs>
<clipPath id="clip0_132_36">
<rect width="800" height="800" fill="white"/>
</clipPath>
</defs>
</svg>
