<svg width="800" height="800" viewBox="0 0 800 800" fill="none" xmlns="http://www.w3.org/2000/svg">
<path d="M258.32 377.902C258.32 363.551 244.365 348.309 220.215 348.309C193.097 348.309 163.306 368.203 158.753 407.891C154.101 447.975 179.042 465.791 204.182 465.791C229.321 465.791 242.484 455.992 255.945 442.928C244.365 428.379 229.42 435.109 226.55 436.593C223.382 438.177 219.325 440.354 211.011 440.354C201.311 440.354 191.414 436 191.414 417.888C253.569 411.751 258.32 392.254 258.32 377.902ZM227.539 380.278C227.143 384.732 225.362 392.352 193.888 396.608C200.52 373.053 213.188 371.271 219.028 371.271C224.471 371.271 227.935 375.527 227.539 380.278ZM122.232 384.138C122.232 384.138 108.87 426.102 107.782 429.566C107.386 426.003 97.5875 350.685 97.5875 350.685C74.8237 350.685 62.65 366.916 56.2168 384.039C56.2168 384.039 39.9852 426.102 38.5995 429.665C38.5006 426.399 36.1252 384.534 36.1252 384.534C34.7396 363.551 15.5388 350.784 0 350.784L18.8049 464.9C42.6574 464.801 55.5239 448.668 62.2541 431.546C62.2541 431.546 76.6052 394.431 77.1991 392.748C77.298 394.332 87.4923 464.9 87.4923 464.9C111.444 464.9 124.31 449.757 131.238 433.228L164.79 350.784C141.136 350.784 128.665 366.916 122.232 384.138ZM346.208 348.111C331.461 348.111 320.178 356.128 310.677 367.906V367.807L319.188 299.219C299.592 299.219 283.657 316.242 280.589 341.579L265.743 464.009C277.026 464.009 289.002 460.743 295.435 452.429C301.175 459.852 309.786 465.791 322.554 465.791C355.611 465.791 378.275 427.389 378.275 391.363C378.077 358.504 362.143 348.111 346.208 348.111ZM343.14 407.001C339.676 427.092 328.492 440.75 317.704 440.75C306.817 440.75 302.165 435.901 302.165 435.901C304.243 418.283 305.53 407.495 309.489 398.192C313.448 388.888 322.85 374.042 332.649 374.042C342.249 374.042 346.604 386.81 343.14 407.001ZM460.819 350.784H437.758L437.857 349.596C439.441 334.552 443.004 326.634 454.782 325.348C462.798 324.556 466.361 320.399 467.252 315.846C467.945 312.283 470.122 299.912 470.122 299.912C423.803 299.615 409.254 319.607 405.493 350.091L405.394 350.784H404.899C397.377 350.784 389.063 359.295 387.678 370.084L387.183 374.042H402.623L389.657 481.131L385.698 500.332C386.193 500.332 386.787 500.431 387.282 500.431C408.957 499.639 422.813 482.517 425.881 457.675L435.977 374.042H443.202C450.328 374.042 458.642 366.916 460.126 355.04L460.819 350.784ZM580.774 348.804C554.151 348.804 529.011 368.401 521.292 399.182C513.572 429.962 525.251 466.384 564.444 466.384C603.538 466.384 626.104 428.478 626.104 396.905C626.104 365.531 604.825 348.804 580.774 348.804ZM591.563 406.011C590.177 419.966 584.041 441.146 567.215 441.146C550.291 441.146 552.666 416.403 554.349 404.625C556.13 392.056 563.157 374.141 578.3 374.141C591.859 374.141 593.146 390.274 591.563 406.011ZM757.64 384.138C757.64 384.138 744.278 426.102 743.189 429.566C742.794 426.003 732.995 350.685 732.995 350.685C710.231 350.685 698.058 366.916 691.624 384.039C691.624 384.039 675.393 426.102 674.007 429.665C673.908 426.399 671.533 384.534 671.533 384.534C670.147 363.551 650.946 350.784 635.408 350.784L654.114 464.9C677.966 464.801 690.833 448.668 697.563 431.546C697.563 431.546 711.914 394.431 712.409 392.748C712.508 394.332 722.702 464.9 722.702 464.9C746.653 464.9 759.52 449.757 766.448 433.228L800 350.784C776.444 350.784 763.974 366.916 757.64 384.138ZM482.593 299.912L463.194 456.388L459.235 475.688C459.73 475.688 460.324 475.787 460.819 475.787C481.702 475.49 496.548 457.18 499.32 434.119L510.504 344.351C513.869 316.935 497.538 299.912 482.593 299.912Z" fill="#D4D4D8"/>
</svg>
